<mxfile host="app.diagrams.net" modified="2020-10-01T08:02:16.719Z" agent="5.0 (Windows NT 10.0; Win64; x64) AppleWebKit/537.36 (KHTML, like Gecko) Chrome/75.0.3770.80 Safari/537.36" etag="NEnBUQCKLqFfjs15q9-r" version="13.7.6" type="github">
  <diagram name="Page-1" id="b5b7bab2-c9e2-2cf4-8b2a-24fd1a2a6d21">
    <mxGraphModel dx="868" dy="450" grid="1" gridSize="10" guides="1" tooltips="1" connect="1" arrows="1" fold="1" page="1" pageScale="1" pageWidth="827" pageHeight="1169" background="#ffffff" math="0" shadow="0">
      <root>
        <mxCell id="0" />
        <mxCell id="1" parent="0" />
        <mxCell id="6e0c8c40b5770093-72" value="" style="shape=folder;fontStyle=1;spacingTop=10;tabWidth=194;tabHeight=22;tabPosition=left;html=1;rounded=0;shadow=0;comic=0;labelBackgroundColor=none;strokeWidth=1;fillColor=none;fontFamily=Verdana;fontSize=10;align=center;" parent="1" vertex="1">
          <mxGeometry x="30" y="30" width="570" height="150" as="geometry" />
        </mxCell>
        <mxCell id="6e0c8c40b5770093-73" value="&lt;font style=&quot;font-size: 10px&quot;&gt;Package Diagram -&amp;nbsp;&lt;/font&gt;VGLGUI" style="text;html=1;align=left;verticalAlign=top;spacingTop=-4;fontSize=10;fontFamily=Verdana" parent="1" vertex="1">
          <mxGeometry x="38" y="32" width="206" height="20" as="geometry" />
        </mxCell>
        <mxCell id="DQtnjJ05eqUEmfoBN46w-3" value="&lt;font style=&quot;font-size: 14px&quot;&gt;Glyph&lt;/font&gt;" style="shape=folder;fontStyle=1;spacingTop=10;tabWidth=50;tabHeight=17;tabPosition=left;html=1;rounded=0;shadow=0;comic=0;labelBackgroundColor=none;strokeWidth=1;fontFamily=Verdana;fontSize=10;align=center;" parent="1" vertex="1">
          <mxGeometry x="303" y="79.5" width="104" height="70" as="geometry" />
        </mxCell>
        <mxCell id="Mwgwz4iGvv4nTQgViP7R-1" value="&lt;span style=&quot;text-align: left&quot;&gt;&lt;font style=&quot;font-size: 14px&quot;&gt;GUI&lt;/font&gt;&lt;/span&gt;" style="shape=folder;fontStyle=1;spacingTop=10;tabWidth=50;tabHeight=17;tabPosition=left;html=1;rounded=0;shadow=0;comic=0;labelBackgroundColor=none;strokeWidth=1;fontFamily=Verdana;fontSize=10;align=center;" parent="1" vertex="1">
          <mxGeometry x="37" y="79.5" width="100" height="70" as="geometry" />
        </mxCell>
        <mxCell id="CpMBA8G4XnOQebgT5AAp-6" value="&lt;font style=&quot;font-size: 14px&quot;&gt;VisionGL&lt;/font&gt;" style="shape=folder;fontStyle=1;spacingTop=10;tabWidth=50;tabHeight=17;tabPosition=left;html=1;rounded=0;shadow=0;comic=0;labelBackgroundColor=none;strokeWidth=1;fontFamily=Verdana;fontSize=10;align=center;" parent="1" vertex="1">
          <mxGeometry x="494" y="79.5" width="100" height="70" as="geometry" />
        </mxCell>
        <mxCell id="CpMBA8G4XnOQebgT5AAp-7" value="&lt;font style=&quot;font-size: 12px&quot;&gt;visual programming &amp;gt;&lt;/font&gt;" style="endArrow=none;html=1;fontFamily=Verdana;fontSize=10;exitX=0;exitY=0;exitDx=100;exitDy=43.5;exitPerimeter=0;entryX=0;entryY=0;entryDx=0;entryDy=43.5;entryPerimeter=0;" parent="1" source="Mwgwz4iGvv4nTQgViP7R-1" target="DQtnjJ05eqUEmfoBN46w-3" edge="1">
          <mxGeometry width="50" height="50" relative="1" as="geometry">
            <mxPoint x="198" y="125.49947954963227" as="sourcePoint" />
            <mxPoint x="268" y="125.49947954963227" as="targetPoint" />
          </mxGeometry>
        </mxCell>
        <mxCell id="CpMBA8G4XnOQebgT5AAp-8" value="&lt;font style=&quot;font-size: 12px&quot;&gt;run &amp;gt;&lt;/font&gt;" style="endArrow=none;html=1;fontFamily=Verdana;fontSize=10;entryX=0;entryY=0;entryDx=0;entryDy=43.5;entryPerimeter=0;exitX=0;exitY=0;exitDx=104;exitDy=43.5;exitPerimeter=0;" parent="1" source="DQtnjJ05eqUEmfoBN46w-3" edge="1">
          <mxGeometry width="50" height="50" relative="1" as="geometry">
            <mxPoint x="398" y="126.49947954963227" as="sourcePoint" />
            <mxPoint x="494" y="122.99947954963227" as="targetPoint" />
          </mxGeometry>
        </mxCell>
      </root>
    </mxGraphModel>
  </diagram>
</mxfile>
